<svg width="8" height="8" viewBox="0 0 8 8" fill="none" xmlns="http://www.w3.org/2000/svg">
<path id="Shape" fill-rule="evenodd" clip-rule="evenodd" d="M4 1.2998C2.61929 1.2998 1.5 2.41909 1.5 3.7998C1.5 5.18051 2.61928 6.2998 3.99999 6.2998C5.3807 6.29981 6.49999 5.18053 6.49999 3.79982C6.5 2.41911 5.38072 1.29981 4.00001 1.2998H4ZM0.5 3.7998C0.5 2.54938 1.1671 1.39393 2.25 0.768717C3.3329 0.143501 4.66709 0.1435 5.75 0.768715C6.8329 1.39393 7.5 2.54937 7.5 3.7998C7.5 5.05023 6.8329 6.20568 5.75 6.83089C4.6671 7.45611 3.3329 7.45611 2.25 6.83089C1.1671 6.20568 0.5 5.05023 0.5 3.7998V3.7998Z" fill="#BEBEBE"/>
</svg>
