<svg width="40" height="24" viewBox="0 0 40 24" fill="none" xmlns="http://www.w3.org/2000/svg">
<g id="Switch">
<mask id="path-1-inside-1_82_12" fill="white">
<path d="M0 12C0 5.37258 5.37258 0 12 0H28C34.6274 0 40 5.37258 40 12C40 18.6274 34.6274 24 28 24H12C5.37258 24 0 18.6274 0 12Z"/>
</mask>
<path d="M0 12C0 5.37258 5.37258 0 12 0H28C34.6274 0 40 5.37258 40 12C40 18.6274 34.6274 24 28 24H12C5.37258 24 0 18.6274 0 12Z" fill="white"/>
<path d="M12 0V1H28V0V-1H12V0ZM28 24V23H12V24V25H28V24ZM12 24V23C5.92487 23 1 18.0751 1 12H0H-1C-1 19.1797 4.8203 25 12 25V24ZM40 12H39C39 18.0751 34.0751 23 28 23V24V25C35.1797 25 41 19.1797 41 12H40ZM28 0V1C34.0751 1 39 5.92487 39 12H40H41C41 4.8203 35.1797 -1 28 -1V0ZM12 0V-1C4.8203 -1 -1 4.8203 -1 12H0H1C1 5.92487 5.92487 1 12 1V0Z" fill="#757575" mask="url(#path-1-inside-1_82_12)"/>
<path id="Knob" d="M21 12C21 16.9706 16.9706 21 12 21C7.02944 21 3 16.9706 3 12C3 7.02944 7.02944 3 12 3C16.9706 3 21 7.02944 21 12Z" fill="#4067EC"/>
</g>
</svg>
