<svg width="16" height="12" viewBox="0 0 16 12" fill="none" xmlns="http://www.w3.org/2000/svg">
<path id="Shape" fill-rule="evenodd" clip-rule="evenodd" d="M16 5.79981C16 5.79981 13 0.299805 8 0.299805C3 0.299805 0 5.79981 0 5.79981C0 5.79981 3 11.2998 8 11.2998C13 11.2998 16 5.79981 16 5.79981ZM1.173 5.79981C1.65652 6.53468 2.21265 7.21912 2.83301 7.84281C4.12 9.13181 5.88 10.2998 8 10.2998C10.12 10.2998 11.879 9.13181 13.168 7.84281C13.7884 7.21912 14.3445 6.53468 14.828 5.79981C14.3445 5.06493 13.7884 4.38049 13.168 3.7568C11.879 2.46781 10.119 1.2998 8 1.2998C5.88 1.2998 4.121 2.46781 2.832 3.7568C2.21164 4.38049 1.65551 5.06493 1.172 5.79981L1.173 5.79981Z" fill="#BEBEBE"/>
</svg>
